<?xml version="1.0" ?><!DOCTYPE svg  PUBLIC '-//W3C//DTD SVG 1.1//EN'  'http://www.w3.org/Graphics/SVG/1.1/DTD/svg11.dtd'><svg enable-background="new 0 0 512 512" height="512px" id="Calque_1" version="1.1" viewBox="0 0 512 512" width="512px" xml:space="preserve" xmlns="http://www.w3.org/2000/svg" xmlns:xlink="http://www.w3.org/1999/xlink"><path d="M435.414,299.995c-0.037-0.021-0.07-0.047-0.106-0.068l-0.067-0.039l-131.704,23.224  c-0.021,0.004-0.04,0.008-0.061,0.011L280,327.262l-10.999,6.352l110.248,63.652c0.008,0.005,0.015,0.01,0.022,0.015  c26.814,15.464,61.221,6.242,76.701-20.568C471.455,349.895,462.233,315.48,435.414,299.995z" fill="#D712F9"/><path d="M418.339,175.609c-0.005,0.001-0.009,0.001-0.014,0.002h-0.001l-0.215,0.038L316.83,296.358l-4.358,11.979  l122.854-21.664c0.021-0.004,0.041-0.008,0.062-0.011l2.37-0.418c0.029-0.005,0.057-0.015,0.086-0.02  c30.496-5.379,50.933-34.565,45.556-65.061C478.022,190.666,448.829,170.238,418.339,175.609z" fill="#D712F9"/><path d="M100.645,163.482l0.15,0.178l131.735,23.236c0.014,0.003,0.028,0.005,0.043,0.008l23.437,4.134l12.521-2.211  l-80.184-95.559c-0.015-0.019-0.031-0.036-0.045-0.055l-1.608-1.917c-0.007-0.008-0.012-0.017-0.019-0.025  c-9.642-11.477-23.173-18.518-38.105-19.824c-14.943-1.305-29.502,3.284-40.994,12.927c-11.493,9.643-18.542,23.184-19.849,38.127  c-1.306,14.931,3.277,29.478,12.904,40.965C100.635,163.472,100.64,163.477,100.645,163.482z" fill="#D712F9"/><path d="M195.187,296.388l-8.183-9.76l-42.648,117.194c-0.004,0.012-0.01,0.023-0.014,0.036  c-0.007,0.021-0.016,0.04-0.023,0.061c-0.022,0.06-0.045,0.12-0.069,0.179l-0.783,2.157c-0.006,0.018-0.016,0.032-0.022,0.049  c-10.559,29.088,4.496,61.352,33.58,71.938c29.1,10.593,61.392-4.468,71.984-33.567c0.006-0.018,0.015-0.034,0.022-0.053  l0.053-0.146l-45.703-125.557L195.187,296.388z" fill="#D712F9"/><path d="M74.248,286.244l0.111,0.02l136.517-78.815l8.167-9.729L93.677,175.611c0,0-0.001,0-0.002,0  c-0.004,0-0.008,0-0.012-0.001c-14.773-2.605-29.679,0.698-41.968,9.301c-12.288,8.603-20.49,21.478-23.095,36.252  c-5.377,30.496,15.06,59.683,45.557,65.062C74.188,286.23,74.218,286.239,74.248,286.244z" fill="#D712F9"/><path d="M186.835,236.339L78.821,298.698c-0.01,0.005-0.019,0.011-0.029,0.017l-2.1,1.212  c-0.036,0.022-0.069,0.047-0.105,0.068c-12.993,7.501-22.287,19.611-26.169,34.102c-3.883,14.489-1.89,29.623,5.611,42.615  c15.481,26.815,49.89,36.039,76.708,20.563c0.006-0.003,0.011-0.008,0.017-0.011l0.198-0.114l53.885-148.072V236.339z" fill="#D712F9"/><path d="M409.676,165.474c0.01-0.012,0.021-0.022,0.03-0.034c0.015-0.017,0.029-0.033,0.044-0.05  c0.046-0.052,0.091-0.105,0.139-0.156l1.452-1.734c0.009-0.011,0.019-0.02,0.028-0.03c19.88-23.722,16.769-59.197-6.944-79.096  c-23.711-19.893-59.185-16.797-79.098,6.895c-0.007,0.009-0.013,0.018-0.02,0.026l-0.142,0.169v157.615l4.345,11.941  L409.676,165.474z" fill="#D712F9"/><path d="M287.014,293.289c5.992-5.808,10.226-13.135,12.235-21.182c0.513-2.059,0.878-4.153,1.085-6.22  c0.164-1.519,0.244-3.061,0.244-4.633c0-6.841-1.506-13.398-4.477-19.489c-0.901-1.86-1.967-3.707-3.176-5.506  c-4.675-6.884-11.161-12.326-18.739-15.709c-1.889-0.852-3.883-1.578-5.95-2.17c-3.945-1.129-8.063-1.702-12.237-1.702  c-4.172,0-8.289,0.573-12.237,1.702c-2.065,0.591-4.06,1.318-5.928,2.16c-7.599,3.393-14.086,8.835-18.78,15.747  c-1.192,1.774-2.257,3.621-3.148,5.461c-2.978,6.107-4.484,12.665-4.484,19.507c0,1.577,0.08,3.12,0.237,4.588  c0.213,2.115,0.579,4.212,1.091,6.272c2.008,8.038,6.242,15.365,12.243,21.182c1.526,1.474,3.153,2.84,4.83,4.052  c6.75,4.906,14.701,7.802,23.009,8.384c2.022,0.148,4.331,0.146,6.314,0.002c8.331-0.584,16.282-3.479,23.017-8.375  C283.852,296.138,285.48,294.773,287.014,293.289z" fill="#B7B7B7"/><path d="M368.54,406.27l-0.081-0.221L252.833,339.29c-0.027-0.015-0.053-0.03-0.08-0.046L232,327.262l-12.553-2.212  l42.665,117.217c0.007,0.019,0.014,0.037,0.021,0.056l0.829,2.277c0.01,0.025,0.021,0.049,0.031,0.074  c8.291,22.78,29.886,36.955,52.832,36.957c6.365,0.001,12.831-1.09,19.15-3.39c29.083-10.585,44.138-42.848,33.58-71.937  C368.552,406.292,368.545,406.281,368.54,406.27z" fill="#D712F9"/><path d="M312.166,213.835V86.51c0-30.965-25.196-56.156-56.166-56.156s-56.165,25.191-56.165,56.156v0.226  l101.317,120.742L312.166,213.835z" fill="#D712F9"/><path d="M312.166,193.794v20.04l-11.021-6.359l-101.31-120.74v-0.221c0-30.97,25.189-56.159,56.16-56.159  c3.85,0,7.619,0.39,11.25,1.13c-25.601,5.229-44.91,27.91-44.91,55.029v0.221L312.166,193.794z" opacity="0.2"/><path d="M255.814,173.419l12.881,15.352l-12.53,2.212l-155.218-27.372l-0.142-0.169  c-19.907-23.724-16.802-59.212,6.923-79.12c2.949-2.475,6.087-4.599,9.344-6.366c-16.25,20.461-16.463,50.248,0.969,71.022  l0.142,0.169L255.814,173.419z" opacity="0.2"/><path d="M199.549,194.033l19.736,3.48l-8.177,9.748L74.61,286.066l-0.217-0.038  c-30.499-5.378-50.932-34.559-45.554-65.059c0.668-3.792,1.707-7.436,3.066-10.883c0.704,26.119,19.688,49.074,46.394,53.783  l0.218,0.038L199.549,194.033z" opacity="0.2"/><path d="M169.698,245.991l17.355-10.021l0.002,12.724l-53.909,148.106l-0.191,0.11  c-26.821,15.485-61.23,6.266-76.715-20.556c-1.925-3.334-3.472-6.794-4.646-10.309c17.328,19.557,46.625,24.938,70.111,11.379  l0.191-0.11L169.698,245.991z" opacity="0.2"/><path d="M180.229,304.981l6.854-18.831l8.181,9.745l53.904,148.108l-0.075,0.207  c-10.592,29.103-42.877,44.157-71.98,33.565c-3.618-1.316-7.027-2.973-10.186-4.911c25.845,3.843,51.748-10.866,61.022-36.35  l0.076-0.207L180.229,304.981z" opacity="0.2"/><path d="M226.214,343.401l-6.854-18.831l12.531,2.207l136.496,78.809l0.075,0.207  c10.593,29.102-4.462,61.387-33.564,71.98c-3.618,1.317-7.294,2.239-10.96,2.785c22.269-13.67,32.656-41.587,23.381-67.07  l-0.075-0.207L226.214,343.401z" opacity="0.2"/><path d="M286.135,343.274l-17.354-10.02l11.018-6.364l155.219-27.367l0.19,0.11  c26.82,15.484,36.041,49.894,20.557,76.715c-1.925,3.335-4.148,6.404-6.605,9.179c8.271-24.785-1.716-52.849-25.201-66.407  l-0.191-0.11L286.135,343.274z" opacity="0.2"/><path d="M331.957,304.658l-19.734,3.48l4.349-11.957l101.313-120.738l0.217-0.038  c30.499-5.378,59.68,15.054,65.059,45.553c0.669,3.792,0.938,7.573,0.84,11.277c-9.595-24.303-35.285-39.381-61.991-34.672  l-0.217,0.039L331.957,304.658z" opacity="0.2"/><path d="M342.237,245.625l-12.881,15.351l-4.354-11.955l0.002-157.613l0.142-0.168  c19.907-23.724,55.395-26.83,79.119-6.923c2.95,2.475,5.587,5.198,7.893,8.099c-22.972-12.45-52.344-7.487-69.774,13.287  l-0.142,0.169L342.237,245.625z" opacity="0.2"/><g><path d="   M307.079,261.255c0,1.787-0.089,3.543-0.276,5.281c-0.244,2.435-0.667,4.818-1.246,7.146c-2.347,9.394-7.292,17.755-14.025,24.281   c-1.737,1.679-3.592,3.24-5.546,4.652c-7.507,5.458-16.548,8.913-26.363,9.601c-1.198,0.088-2.405,0.127-3.622,0.127   c-1.218,0-2.424-0.039-3.622-0.127c-9.814-0.688-18.854-4.143-26.363-9.601c-1.953-1.412-3.808-2.974-5.545-4.652   c-6.733-6.526-11.681-14.888-14.027-24.281c-0.578-2.326-1-4.712-1.246-7.146c-0.186-1.738-0.273-3.494-0.273-5.281   c0-8.008,1.844-15.594,5.133-22.338c1.059-2.188,2.276-4.279,3.622-6.281c5.319-7.832,12.76-14.124,21.485-18.02   c2.198-0.992,4.476-1.816,6.812-2.484c4.456-1.275,9.167-1.953,14.025-1.953c4.86,0,9.569,0.678,14.025,1.953   c2.336,0.668,4.614,1.492,6.813,2.484c8.726,3.896,16.166,10.188,21.484,18.02c1.346,2.002,2.563,4.094,3.622,6.281   C305.233,245.661,307.079,253.249,307.079,261.255z" fill="none" stroke="#000000" stroke-linecap="round" stroke-linejoin="round" stroke-miterlimit="10" stroke-width="4"/><g><line fill="none" stroke="#000000" stroke-linecap="round" stroke-linejoin="round" stroke-miterlimit="10" stroke-width="4" x1="193.335" x2="193.335" y1="89.102" y2="86.51"/><polyline fill="none" points="    318.666,250.225 318.666,225.093 318.666,89.102 318.666,86.51   " stroke="#000000" stroke-linecap="round" stroke-linejoin="round" stroke-miterlimit="10" stroke-width="4"/><line fill="none" stroke="#000000" stroke-linecap="round" stroke-linejoin="round" stroke-miterlimit="10" stroke-width="4" x1="193.335" x2="193.335" y1="250.225" y2="225.082"/><path d="    M193.335,86.51c0-34.599,28.057-62.656,62.665-62.656c34.609,0,62.666,28.058,62.666,62.656" fill="none" stroke="#000000" stroke-linecap="round" stroke-linejoin="round" stroke-miterlimit="10" stroke-width="4"/></g><g><line fill="none" stroke="#000000" stroke-linecap="round" stroke-linejoin="round" stroke-miterlimit="10" stroke-width="4" x1="97.345" x2="95.676" y1="169.653" y2="167.673"/><polyline fill="none" points="    296.892,212.526 296.892,212.515 280.739,193.272 256,163.784 193.335,89.102 191.675,87.122   " stroke="#000000" stroke-linecap="round" stroke-linejoin="round" stroke-miterlimit="10" stroke-width="4"/><polyline fill="none" points="    200.903,293.086 200.893,293.075 184.749,273.822   " stroke="#000000" stroke-linecap="round" stroke-linejoin="round" stroke-miterlimit="10" stroke-width="4"/><path d="    M95.675,167.675c-22.247-26.511-18.789-66.033,7.723-88.279s66.033-18.788,88.279,7.725" fill="none" stroke="#000000" stroke-linecap="round" stroke-linejoin="round" stroke-miterlimit="10" stroke-width="4"/></g><g><polyline fill="none" points="    256.021,197.637 256.01,197.637 256,197.637 231.262,193.272 97.345,169.653 94.795,169.208   " stroke="#000000" stroke-linecap="round" stroke-linejoin="round" stroke-miterlimit="10" stroke-width="4"/><line fill="none" stroke="#000000" stroke-linecap="round" stroke-linejoin="round" stroke-miterlimit="10" stroke-width="4" x1="234.258" x2="209.489" y1="321.06" y2="316.695"/><line fill="none" stroke="#000000" stroke-linecap="round" stroke-linejoin="round" stroke-miterlimit="10" stroke-width="4" x1="75.561" x2="73.032" y1="293.075" y2="292.63"/><path d="    M73.028,292.625c-34.083-6.012-56.839-38.508-50.829-72.591c6.009-34.084,38.509-56.836,72.593-50.826" fill="none" stroke="#000000" stroke-linecap="round" stroke-linejoin="round" stroke-miterlimit="10" stroke-width="4"/></g><g><line fill="none" stroke="#000000" stroke-linecap="round" stroke-linejoin="round" stroke-miterlimit="10" stroke-width="4" x1="138.249" x2="135.997" y1="401.6" y2="402.897"/><polyline fill="none" points="    73.333,294.362 75.561,293.075 193.335,225.082 215.118,212.505   " stroke="#000000" stroke-linecap="round" stroke-linejoin="round" stroke-miterlimit="10" stroke-width="4"/><line fill="none" stroke="#000000" stroke-linecap="round" stroke-linejoin="round" stroke-miterlimit="10" stroke-width="4" x1="277.743" x2="256" y1="321.06" y2="333.615"/><path d="    M135.997,402.899c-29.973,17.303-68.294,7.037-85.598-22.937c-17.305-29.971-7.037-68.292,22.938-85.596" fill="none" stroke="#000000" stroke-linecap="round" stroke-linejoin="round" stroke-miterlimit="10" stroke-width="4"/></g><line fill="none" stroke="#000000" stroke-linecap="round" stroke-linejoin="round" stroke-miterlimit="10" stroke-width="4" x1="256" x2="255.119" y1="444.473" y2="446.899"/><polyline fill="none" points="   137.356,404.036 138.237,401.611 138.237,401.6 138.249,401.6 171.582,310.007 184.749,273.822 193.335,250.225  " stroke="#000000" stroke-linecap="round" stroke-linejoin="round" stroke-miterlimit="10" stroke-width="4"/><polyline fill="none" points="   302.512,316.695 311.107,293.075 311.107,293.066  " stroke="#000000" stroke-linecap="round" stroke-linejoin="round" stroke-miterlimit="10" stroke-width="4"/><path d="   M255.116,446.898c-11.838,32.521-47.795,49.288-80.315,37.452c-32.521-11.838-49.286-47.793-37.449-80.315" fill="none" stroke="#000000" stroke-linecap="round" stroke-linejoin="round" stroke-miterlimit="10" stroke-width="4"/><g><line fill="none" stroke="#000000" stroke-linecap="round" stroke-linejoin="round" stroke-miterlimit="10" stroke-width="4" x1="374.644" x2="373.753" y1="404.036" y2="401.6"/><line fill="none" stroke="#000000" stroke-linecap="round" stroke-linejoin="round" stroke-miterlimit="10" stroke-width="4" x1="327.251" x2="318.666" y1="273.822" y2="250.225"/><polyline fill="none" points="    200.893,293.075 200.903,293.086 209.489,316.695 256,444.473 256.882,446.899   " stroke="#000000" stroke-linecap="round" stroke-linejoin="round" stroke-miterlimit="10" stroke-width="4"/><path d="    M374.648,404.034c11.836,32.522-4.929,68.479-37.45,80.315c-32.522,11.836-68.476-4.93-80.313-37.452" fill="none" stroke="#000000" stroke-linecap="round" stroke-linejoin="round" stroke-miterlimit="10" stroke-width="4"/></g><g><line fill="none" stroke="#000000" stroke-linecap="round" stroke-linejoin="round" stroke-miterlimit="10" stroke-width="4" x1="438.669" x2="436.438" y1="294.362" y2="293.075"/><polyline fill="none" points="    296.892,212.515 296.892,212.526 318.666,225.093   " stroke="#000000" stroke-linecap="round" stroke-linejoin="round" stroke-miterlimit="10" stroke-width="4"/><polyline fill="none" points="    234.258,321.06 256,333.615 373.753,401.6 376.002,402.897   " stroke="#000000" stroke-linecap="round" stroke-linejoin="round" stroke-miterlimit="10" stroke-width="4"/><path d="    M438.664,294.366c29.972,17.305,40.241,55.625,22.938,85.596c-17.306,29.975-55.624,40.24-85.6,22.937" fill="none" stroke="#000000" stroke-linecap="round" stroke-linejoin="round" stroke-miterlimit="10" stroke-width="4"/></g><g><line fill="none" stroke="#000000" stroke-linecap="round" stroke-linejoin="round" stroke-miterlimit="10" stroke-width="4" x1="417.206" x2="414.655" y1="169.208" y2="169.653"/><polyline fill="none" points="    256,197.637 256.01,197.637 256.021,197.637 280.739,193.272   " stroke="#000000" stroke-linecap="round" stroke-linejoin="round" stroke-miterlimit="10" stroke-width="4"/><polyline fill="none" points="    277.743,321.06 302.512,316.695 436.438,293.075 438.969,292.63   " stroke="#000000" stroke-linecap="round" stroke-linejoin="round" stroke-miterlimit="10" stroke-width="4"/><path d="    M417.21,169.208c34.084-6.01,66.581,16.745,72.591,50.826c6.01,34.085-16.745,66.58-50.828,72.591" fill="none" stroke="#000000" stroke-linecap="round" stroke-linejoin="round" stroke-miterlimit="10" stroke-width="4"/></g><g><line fill="none" stroke="#000000" stroke-linecap="round" stroke-linejoin="round" stroke-miterlimit="10" stroke-width="4" x1="320.324" x2="318.666" y1="87.122" y2="89.102"/><line fill="none" stroke="#000000" stroke-linecap="round" stroke-linejoin="round" stroke-miterlimit="10" stroke-width="4" x1="231.262" x2="215.118" y1="193.272" y2="212.505"/><polyline fill="none" points="    416.324,167.673 414.666,169.653 414.655,169.653 327.251,273.822 311.107,293.066 311.107,293.075   " stroke="#000000" stroke-linecap="round" stroke-linejoin="round" stroke-miterlimit="10" stroke-width="4"/><path d="    M320.322,87.12c22.25-26.51,61.769-29.969,88.281-7.725c26.512,22.248,29.968,61.769,7.723,88.28" fill="none" stroke="#000000" stroke-linecap="round" stroke-linejoin="round" stroke-miterlimit="10" stroke-width="4"/></g></g><circle cx="411.917" cy="473.38" fill="#D712F9" r="12"/><circle cx="493.293" cy="299.888" fill="#D712F9" r="12"/><circle cx="399.917" cy="42.354" fill="#D712F9" r="12"/><circle cx="123.392" cy="30.354" fill="#D712F9" r="12"/><circle cx="27.741" cy="134.098" fill="#D712F9" r="12"/><circle cx="39.741" cy="440.817" fill="#D712F9" r="12"/><g><line fill="none" stroke="#B7B7B7" stroke-miterlimit="10" stroke-width="5" x1="488.076" x2="470.007" y1="422.744" y2="440.816"/><line fill="none" stroke="#B7B7B7" stroke-miterlimit="10" stroke-width="5" x1="470.007" x2="488.076" y1="422.744" y2="440.816"/></g><g><line fill="none" stroke="#B7B7B7" stroke-miterlimit="10" stroke-width="5" x1="106.38" x2="88.311" y1="464.344" y2="482.415"/><line fill="none" stroke="#B7B7B7" stroke-miterlimit="10" stroke-width="5" x1="88.311" x2="106.38" y1="464.344" y2="482.415"/></g><g><line fill="none" stroke="#B7B7B7" stroke-miterlimit="10" stroke-width="5" x1="30.271" x2="12.202" y1="303.308" y2="321.379"/><line fill="none" stroke="#B7B7B7" stroke-miterlimit="10" stroke-width="5" x1="12.202" x2="30.271" y1="303.308" y2="321.379"/></g><g><line fill="none" stroke="#B7B7B7" stroke-miterlimit="10" stroke-width="5" x1="67.049" x2="48.979" y1="62.226" y2="80.298"/><line fill="none" stroke="#B7B7B7" stroke-miterlimit="10" stroke-width="5" x1="48.979" x2="67.049" y1="62.226" y2="80.298"/></g><g><line fill="none" stroke="#B7B7B7" stroke-miterlimit="10" stroke-width="5" x1="326.699" x2="308.631" y1="14.819" y2="32.89"/><line fill="none" stroke="#B7B7B7" stroke-miterlimit="10" stroke-width="5" x1="308.631" x2="326.699" y1="14.819" y2="32.89"/></g><g><line fill="none" stroke="#B7B7B7" stroke-miterlimit="10" stroke-width="5" x1="493.293" x2="475.223" y1="122.098" y2="140.17"/><line fill="none" stroke="#B7B7B7" stroke-miterlimit="10" stroke-width="5" x1="475.223" x2="493.293" y1="122.098" y2="140.17"/></g></svg>